# xmcd
#
# Track frame offsets:
#       150
#       10232
#       22834
#       33021
#       39863
#       52971
#       59908
#       72294
#       83134
#       94665
#       104950
#       114705
#       128084
#       140234
#       150679
#
# Disc length: 2148 seconds
#
# Revision: 0
# Processed by: cddbd v1.5.1PL0 Copyright (c) Steve Scherf et al.
# Submitted via: CD-DA_X-Tractor v0.24
#
DISCID=c908620f
DTITLE=Faron Young - Essential V1
DYEAR=2005
DGENRE=Classic Country
TTITLE0=Hello Walls
TTITLE1=It's Four in the Morning
TTITLE2=Live Fast, Love Hard, Die Young
TTITLE3=Alone With You
TTITLE4=There Goes My Everything
TTITLE5=Going Steady
TTITLE6=Are You Sincere
TTITLE7=Wine Me Up
TTITLE8=Is It Really Over
TTITLE9=As Far As I'm Concerned
TTITLE10=Country Girl
TTITLE11=Chapel in the Moonlight
TTITLE12=Sweet Dreams
TTITLE13=Satisfied Mind
TTITLE14=I Could Never Be Ashamed of You
EXTD=
EXTT0=
EXTT1=
EXTT2=
EXTT3=
EXTT4=
EXTT5=
EXTT6=
EXTT7=
EXTT8=
EXTT9=
EXTT10=
EXTT11=
EXTT12=
EXTT13=
EXTT14=
PLAYORDER=
